<?xml version='1.0' encoding='utf-8'?>
<svg xmlns="http://www.w3.org/2000/svg" width="1452px" height="1453px" version="1.1" viewBox="-186 337 1452 1453"> <g fill="#fff"> <path d="m-186 336.02c-0.26054 0-0.51041 0.10352-0.69463 0.28775-0.18422 0.18424-0.28772 0.43408-0.28772 0.69462l1e-3 1453c0 0.5425 0.43981 0.9823 0.98235 0.9823l1452 1e-3c0.2605 0 0.5104-0.1035 0.6946-0.2877s0.2877-0.4341 0.2877-0.6946l-1e-3 -1453c0-0.54254-0.4398-0.98236-0.9823-0.98236l-1452-0.00101z"/> </g> <g fill="#007ef7"> <path d="m354.98 770.24c-2.287 0.24073-5.296 0.72243-6.62 1.0832-1.3239 0.3009-5.2358 1.023-8.7263 1.5648-3.4904 0.60166-7.1615 1.3843-8.2448 1.8053-1.0231 0.42116-3.4303 1.1435-5.3562 1.5043-1.9258 0.42176-4.8747 1.3848-6.5597 2.1068-1.6249 0.782-3.9718 1.5646-5.1154 1.8056-1.1433 0.2406-2.9488 0.90259-3.972 1.5045-1.0232 0.5415-2.8888 1.384-4.2127 1.8053-1.2638 0.42155-3.4302 1.3846-4.7543 2.1066-1.3239 0.78223-3.4303 1.6851-4.6339 2.0462-1.2037 0.42115-2.5277 1.0829-2.8887 1.5647-0.36112 0.48138-1.685 1.1435-2.8887 1.5645-1.2036 0.36144-3.0692 1.3246-4.1524 2.1064-1.0232 0.78235-2.1666 1.4446-2.4675 1.4446-0.30088 0-1.6249 0.78197-2.8886 1.6848-1.2638 0.963-2.8285 1.8655-3.4906 2.1066-0.6018 0.2406-1.8054 0.96289-2.7082 1.6849-0.8425 0.6621-3.4905 2.4677-5.8375 4.0326-5.1154 3.37-5.5968 3.7914-17.272 13.36-11.134 9.2077-23.892 21.665-31.595 30.994-1.3842 1.6249-3.1896 3.7916-4.0923 4.8142-4.0922 4.7541-9.4483 11.615-10.231 13.059-0.48145 0.96277-1.0833 1.6851-1.324 1.6851-0.30088 0-1.0832 1.0835-1.8656 2.4073-0.72213 1.3241-1.5647 2.4076-1.8054 2.4076s-1.2036 1.2636-2.1063 2.8285c-0.90274 1.6254-2.2868 3.8517-3.0692 4.9955-0.84256 1.1428-2.0461 2.8882-2.7081 3.9111-0.66195 0.9628-1.9258 2.7681-2.7082 3.9116-0.78234 1.1432-2.1665 3.3098-3.009 4.8141-0.84256 1.505-2.4674 4.213-3.6108 6.0188-1.1435 1.8056-2.7684 4.6942-3.6109 6.4394-0.84244 1.6856-1.9257 3.3703-2.4072 3.7917-0.48144 0.36087-1.1434 1.6854-1.5647 2.8885-0.36106 1.2037-1.2035 2.7687-1.8054 3.4306-0.60183 0.6619-1.5044 2.4074-2.0461 3.9115-0.54165 1.4446-1.324 3.1297-1.8656 3.6709-0.48148 0.54164-1.4444 2.4677-2.1064 4.2131-0.72222 1.8057-1.6249 3.6709-2.1064 4.1525-0.4212 0.54174-1.2035 2.1661-1.7451 3.5508-0.48157 1.4447-1.4444 3.4906-2.0462 4.5138-0.60182 1.023-1.4444 2.9486-1.8657 4.2726-0.42123 1.3242-1.1434 2.8289-1.5646 3.3709-0.48144 0.54163-1.2638 2.4071-1.8054 4.2123-0.54166 1.8059-1.5046 4.0924-2.1064 5.1758-0.66196 1.0226-1.6248 3.31-2.1063 5.1155-0.54163 1.7446-1.4444 3.9719-2.0462 4.9942-0.60175 0.96363-1.3239 2.8897-1.5647 4.2135-0.18051 1.324-1.0231 3.6108-1.7452 5.1155-0.72219 1.5046-1.6851 4.2126-2.1064 6.0184-0.42123 1.8051-1.2638 4.2726-1.8656 5.476-0.60181 1.2027-1.6249 4.1523-2.2869 6.6197-0.66202 2.4679-1.6851 6.0788-2.347 8.0647-1.2036 3.7313-2.3471 7.884-4.3932 16.249-0.66208 2.6481-1.8656 6.9809-2.6479 9.6294-0.84253 2.6475-1.7453 6.8601-2.1064 9.3276-0.36102 2.4675-1.1433 6.1987-1.8054 8.2447-0.66195 2.1064-1.5647 6.8009-2.0461 10.532-0.54161 3.7313-1.324 8.8468-1.8657 11.314-0.54161 2.4674-1.3239 8.1844-1.8656 12.637-0.48147 4.454-1.3842 12.217-2.0461 17.152-1.986 14.624-2.5878 27.443-2.5878 52.659-1.4e-5 18.836 0.18048 25.035 0.90276 29.79 0.54161 3.3098 1.324 9.268 1.6851 13.24 0.3611 3.9719 1.2036 9.4486 1.8656 12.157 0.60174 2.7683 1.3841 6.8005 1.7452 9.0272 0.36105 2.2868 1.2637 6.2586 2.0461 8.9064 0.78234 2.6483 1.6249 5.7773 1.8054 6.9213 0.18055 1.1436 1.0231 3.731 1.8656 5.7174 0.78241 1.9853 1.5046 4.1527 1.5046 4.8143 0 0.6621 0.84253 2.8289 1.8054 4.8145 0.96289 1.9865 1.8054 4.0326 1.8054 4.5139 0 0.9027 0.90265 2.9486 6.3189 13.841 4.0923 8.2449 6.1385 12.036 7.2218 13.24 0.48148 0.5419 0.90277 1.2638 0.90277 1.625s0.72211 1.5646 1.6851 2.7683c0.90259 1.2038 2.5878 3.5506 3.7312 5.2359 5.5968 8.2444 19.679 23.109 27.503 29.067 7.7032 5.8374 8.8466 6.5597 16.971 11.435 11.314 6.6797 26.239 12.277 42.488 15.827 12.397 2.7076 22.448 3.4296 41.826 3.0685 13.3-0.2401 16.429-0.4811 23.771-1.8659 8.7263-1.6849 17.031-3.9717 25.276-7.0406 4.9349-1.8059 19.739-9.0868 21.364-10.471 0.48138-0.4214 1.4443-0.9028 2.1664-1.1437 0.66196-0.1804 1.7453-0.9026 2.4674-1.5044 1.0833-1.0234 2.347-1.9257 8.305-5.8375 4.3933-2.9486 16.129-13.06 24.915-21.606 7.4023-7.2213 25.698-27.803 32.558-36.71 1.1434-1.5047 2.8286-3.6106 3.7914-4.6336 0.90278-1.0832 1.6248-2.1666 1.6248-2.4072 0-0.3009 0.4815-0.963 1.0833-1.5649 0.66198-0.6617 2.0462-2.467 3.1896-4.0318 1.1435-1.5643 2.7683-3.8515 3.6711-5.0552 4.8142-6.3203 16.429-23.111 21.364-30.814 0.72212-1.143 1.8656-2.8888 2.5878-3.8518 0.66205-1.0221 2.4073-3.7305 3.9118-6.0174 1.4444-2.347 3.1296-4.8747 3.7915-5.7175 0.60174-0.8421 1.7452-2.5875 2.4675-3.9116 0.72211-1.3241 2.0462-3.5508 2.9488-4.8747 0.90271-1.3846 2.4072-3.8522 3.3701-5.4167 1.0232-1.6245 2.4075-3.73 3.1898-4.6331 0.78241-0.9631 1.3842-2.0465 1.3842-2.4675 7e-5 -0.4215 0.8426-1.9255 1.8056-3.2501 1.023-1.384 1.8054-2.7081 1.8054-2.9487 0-0.3007 0.96296-1.805 2.1065-3.4298 1.1434-1.6248 2.1064-3.19 2.1064-3.4906 0-0.2406 0.84253-1.6248 1.8054-3.0092 1.0231-1.3239 1.8053-2.7083 1.8053-3.0091 0-0.3013 0.96295-1.8658 2.1064-3.5508 1.1436-1.6853 2.1066-3.3704 2.1066-3.731 0-0.3012 0.66192-1.5046 1.5044-2.588 0.84247-1.083 1.5045-2.2268 1.5045-2.5274 0-0.2409 0.96294-1.8658 2.1064-3.4908 1.1433-1.6252 2.1062-3.2502 2.1062-3.6111 0-0.3612 0.84253-1.685 1.8055-2.9492 1.0231-1.2637 1.8054-2.5879 1.8054-3.0087 0-0.361 0.96289-2.0459 2.1063-3.671 1.1435-1.625 2.1064-3.1898 2.1064-3.491 0-0.481 1.6851-3.3099 5.1757-8.6665 0.9627-1.5645 2.1664-3.6711 2.5877-4.7542 0.42116-1.0832 1.1435-2.2869 1.6248-2.6481s1.384-1.8055 2.0462-3.1893c0.662-1.3244 2.2868-4.2134 3.6109-6.3792 1.2638-2.1664 3.0693-5.1156 3.9119-6.6197 0.84259-1.5052 2.4673-4.2132 3.6108-6.0187 1.1434-1.8052 2.8888-4.8145 3.912-6.6198 1.8053-3.1895 3.6107-6.1989 8.1244-13.722 1.1436-1.8655 2.5276-4.3931 3.0693-5.5368 0.54162-1.1434 1.4444-2.6477 2.046-3.3098 0.60194-0.6621 1.6249-2.588 2.2267-4.2129 1.023-2.8281 1.264-3.0086 3.1897-3.0086 1.8055 0 2.1665 0.3003 3.6711 3.0084 0.9028 1.6251 2.3472 4.2735 3.1897 5.8381 0.84255 1.5648 1.8055 2.9488 2.1666 3.19 0.30096 0.1801 1.1433 1.504 1.8053 2.8884 0.66193 1.3835 2.1664 4.0314 3.3098 5.8369 1.1433 1.8053 2.6482 4.3931 3.2499 5.717 0.6621 1.3243 1.8658 3.3105 2.7083 4.4539 0.9026 1.1437 1.5648 2.4074 1.5648 2.8286 0 0.421 0.66185 1.5045 1.4444 2.4678 0.7823 0.9025 1.5646 2.2864 1.8055 3.0087 0.24054 0.722 1.2037 2.2869 2.1665 3.4909 1.023 1.2633 1.8052 2.5873 1.8052 3.0083 0 0.4215 0.6019 1.5049 1.3243 2.4683 0.7823 0.9025 1.9858 2.8883 2.7079 4.4535 0.7825 1.504 2.3471 4.2126 3.4906 6.0178 1.1435 1.8059 2.5277 4.2728 3.0694 5.4166 0.54156 1.1433 1.5044 2.7681 2.1063 3.5504 0.6618 0.7823 1.7451 2.5876 2.347 3.9119 0.66186 1.3839 2.1664 3.9721 3.3099 5.777 1.1434 1.8058 2.5277 4.2732 3.0693 5.4169 0.5417 1.1431 1.5044 2.7678 2.1062 3.5504 0.66204 0.782 1.7453 2.5875 2.3471 3.9117 0.6619 1.384 2.1666 3.9721 3.31 5.7776 1.1436 1.8055 2.5276 4.2126 3.0692 5.356 0.4815 1.0832 1.4443 2.7081 2.1064 3.611 0.60173 0.8424 1.7453 2.7083 2.4675 4.0923 1.8656 3.4308 4.3332 7.6437 6.8005 11.615 1.1434 1.8057 2.5877 4.4537 3.2497 5.7777 0.66204 1.384 1.4445 2.7082 1.8055 2.9486 0.3611 0.1804 1.3842 1.6247 2.2268 3.1897 1.9257 3.4904 4.333 7.6423 6.0783 10.411 0.7223 1.0831 1.986 3.2498 2.8887 4.7542 0.90267 1.5046 2.1666 3.6113 2.8888 4.7547 1.8654 2.828 3.4303 5.4159 5.4764 8.846 1.0231 1.6251 2.4072 3.7312 3.1897 4.6339 0.7822 0.9627 1.384 1.9858 1.384 2.2867-1e-4 0.5419 1.8656 3.4905 5.4163 8.6664 0.72236 0.963 2.588 3.8518 4.2128 6.3794 1.6249 2.5272 3.3702 4.9353 3.8518 5.3563 0.54154 0.4218 0.96274 1.0832 0.96274 1.4444s1.3844 2.5279 3.0093 4.8747c1.6248 2.2871 4.4535 6.3801 6.3192 9.0278 1.8055 2.6479 4.273 6.0179 5.4162 7.5228 1.1438 1.5043 2.7684 3.671 3.6109 4.8142 5.2356 7.1617 7.1014 9.5688 13.42 17.151 9.0874 10.893 10.592 12.518 19.078 21.124 10.471 10.652 22.568 20.943 30.091 25.637 1.6849 1.0835 4.3931 2.7684 6.0179 3.7915 1.6851 1.0831 3.8518 2.3471 4.8147 2.8281 1.023 0.542 3.9721 2.0468 6.6199 3.4308 11.314 5.8375 22.508 9.6284 36.711 12.456 9.4488 1.8673 12.638 2.1684 24.674 2.6494 7.643 0.3006 16.851 0.4211 20.462 0.2403 13.3-0.6022 30.753-4.3333 43.812-9.2683 5.0552-1.9258 17.934-8.245 20.823-10.17 1.6852-1.1435 3.0695-2.1067 6.9812-4.695 4.0923-2.6477 14.865-12.277 20.101-17.934 4.5737-4.8745 6.0782-6.7396 11.615-14.082 0.9027-1.204 2.2267-3.2503 2.9491-4.5735 0.722-1.324 1.9255-3.1901 2.708-4.0928 0.78246-0.963 1.4443-2.0463 1.4443-2.4669 0-0.4215 0.7824-1.8059 1.7455-3.1298 0.9628-1.2638 1.9257-3.009 2.1664-3.7915 0.2407-0.7822 1.2037-2.6478 2.1669-4.1522 0.96277-1.5046 1.7451-3.0093 1.7451-3.3102 0-0.3606 0.7823-2.2263 1.7452-4.2722 2.0463-4.3931 4.0926-9.2679 5.296-13 0.54163-1.504 1.4444-4.0919 2.1066-5.7164 0.6619-1.6851 1.5645-4.6342 2.0458-6.6204 0.4817-1.9859 1.3841-5.116 2.0461-6.921 0.6619-1.8058 1.745-6.1385 2.3471-9.6295 0.6621-3.4908 1.5646-7.7039 2.0461-9.3882 0.4816-1.685 1.2038-5.8983 1.625-9.3288 0.3612-3.4303 1.2036-9.2679 1.8655-12.879 1.926-11.314 2.4675-27.082 2.1666-57.653-0.18016-15.648-0.6014-29.79-0.9023-31.415-0.36123-1.6848-0.90286-7.6433-1.3242-13.241-0.36106-5.6568-1.2038-12.939-1.8053-16.249-0.60156-3.31-1.4444-9.0273-1.8053-12.638-0.36121-3.6712-1.2035-8.9069-1.8054-11.735-0.66224-2.8285-1.4443-7.2218-1.8054-9.8696-0.42137-2.5878-1.0834-5.7775-1.5648-7.1016-0.4214-1.324-1.2638-4.7543-1.7452-7.7029-0.48132-2.949-1.324-6.4999-1.8656-7.9446-0.48146-1.4441-1.324-4.7538-1.8056-7.3418-0.5415-2.6483-1.324-5.5367-1.7452-6.4396-0.4816-0.84217-1.2639-3.49-1.7454-5.837-0.4813-2.3476-1.2638-4.996-1.7453-5.9585-0.48133-0.9032-1.2038-3.3099-1.6249-5.296-0.42116-1.9862-1.2639-4.6339-1.8655-5.8376-0.6622-1.2638-1.4446-3.6713-1.8055-5.4165-0.36106-1.7455-1.324-4.4536-2.1063-6.0184-0.78247-1.5644-1.4443-3.3102-1.4443-3.9116 0-0.6023-0.84265-2.8285-1.8053-4.8745-1.0234-2.1064-1.8057-4.3332-1.8057-4.875 0-0.60156-0.78234-2.5875-1.8055-4.4539-0.9629-1.8651-1.8056-3.6709-1.8056-4.0321 0-0.36094-0.96301-2.768-2.1662-5.2955-1.2039-2.5277-2.7684-6.0182-3.5509-7.6431-1.8656-3.9723-9.9297-20.221-12.157-24.374-1.6248-3.0092-4.2727-7.583-7.6429-13.24-0.7222-1.2035-1.8057-3.0693-2.4676-4.1528-2.8887-4.8746-12.217-18.776-15.286-22.869-1.8657-2.4074-3.9121-5.1762-4.5738-6.0784-7.9441-11.194-28.887-33.28-40.924-43.21-3.31-2.7085-6.3794-5.2364-6.8008-5.5976-1.3839-1.1434-8.2446-6.2585-9.2676-6.86-0.5419-0.3612-3.0694-2.046-5.597-3.7916-2.4673-1.6846-4.8144-3.1289-5.1153-3.1289-0.24084 0-1.2638-0.66211-2.2267-1.4445-1.5648-1.324-16.851-9.3278-22.809-11.916-7.7634-3.4306-24.073-8.6665-31.475-10.11-3.1897-0.66186-7.8237-1.5649-10.291-2.1061-5.4764-1.2037-24.494-1.9861-34.965-1.4444-11.013 0.60184-25.758 3.5509-36.049 7.2821-1.8056 0.6618-5.1154 1.8056-7.3421 2.5882-2.227 0.78224-4.8147 1.8052-5.7174 2.2867-0.9027 0.54163-4.5135 2.287-8.0041 3.9723-3.4905 1.6844-6.7404 3.3092-7.2218 3.6101-0.4815 0.3013-2.949 1.746-5.4162 3.1296-5.4164 3.1294-8.0044 4.8145-10.833 6.8605-8.3652 6.0791-13.3 9.8104-15.647 11.676-14.443 11.555-35.567 32.378-49.409 48.748-3.0093 3.4904-6.1988 7.1616-7.1015 8.1846-0.9027 0.96337-3.0088 3.5508-4.6339 5.6575-1.6249 2.1666-3.4906 4.4536-4.1525 5.2359-0.662 0.722-2.287 2.7077-3.611 4.4532-2.1665 2.8283-2.5276 3.0689-4.2127 2.768-0.96275-0.18027-2.0461-0.78257-2.4072-1.3239-1.0833-1.8049-5.9579-8.365-6.6801-8.967-0.36103-0.3606-1.0232-1.2032-1.5045-1.8653-0.4814-0.72229-2.2267-2.8887-3.9117-4.8144-1.7454-1.9866-4.9351-5.7178-7.2219-8.3659-14.082-16.549-33.22-35.446-48.687-48.144-0.96295-0.78271-3.3099-2.7084-5.1154-4.2124-1.8055-1.5052-4.5738-3.6714-6.0783-4.6944-9.2078-6.379-12.036-8.2451-12.518-8.2451-0.30092 0-1.6851-0.96304-3.0692-2.1062-1.3842-1.1435-2.8285-2.1065-3.1896-2.1065-0.30085 0-1.4443-0.60156-2.4674-1.3841-1.0232-0.7826-2.8286-1.7454-3.9721-2.2267-1.1434-0.42115-2.6479-1.264-3.3099-1.8057-0.66204-0.5416-2.2869-1.4441-3.6109-1.9857-1.324-0.4817-3.6109-1.6248-5.1154-2.4673-1.5044-0.8429-3.1294-1.5646-3.6109-1.5643-0.48133 0-2.1062-0.6621-3.6109-1.4451-1.5044-0.7822-3.9118-1.745-5.4162-2.1658-1.5046-0.3612-3.31-1.0833-4.0321-1.565-0.72222-0.42065-3.31-1.3235-5.7173-1.9858-2.4074-0.6621-5.5969-1.6251-7.0412-2.1667-1.5045-0.48132-5.5366-1.4441-9.0272-2.1059-3.4906-0.6024-8.0042-1.565-9.9902-2.0467-7.4623-1.9256-38.516-2.8279-49.95-1.5039zm398.88 80.039c20.462 1.8656 40.081 10.17 59.038 24.914 8.6664 6.7411 18.114 15.948 24.133 23.472 1.0231 1.2636 2.648 3.2493 3.6711 4.4529 2.1664 2.5277 8.4254 10.893 10.171 13.661 0.662 1.0233 1.7451 2.7082 2.4071 3.7915 0.66195 1.0832 1.9259 2.9486 2.8888 4.0914 0.90285 1.204 1.625 2.5282 1.625 2.9495 0 0.4216 0.60181 1.5041 1.3841 2.4671 0.78205 0.90296 1.9858 2.7682 2.648 4.0925 2.2867 4.4532 4.273 8.065 5.4766 10.051 0.66195 1.0832 1.3844 2.648 1.6251 3.4908 0.2407 0.84255 0.963 2.2268 1.625 3.1294 0.60185 0.90271 1.5045 2.7078 1.9861 4.0923 0.48144 1.3842 1.4443 3.2494 2.1063 4.2127 0.66204 0.9028 1.2037 2.1066 1.2037 2.5878 0 0.48169 0.78234 2.4074 1.745 4.2124 0.96297 1.8058 1.9258 4.2129 2.1665 5.2962 0.24074 1.0834 0.9629 2.7681 1.5647 3.7912 0.66199 1.0237 1.4444 2.949 1.8055 4.2736 0.3009 1.3235 1.2636 4.0315 2.046 6.0172 1.8053 4.6944 3.7313 10.412 5.1154 15.467 0.66196 2.2273 1.4444 4.5735 1.7452 5.236 0.36116 0.6621 1.2038 3.3102 1.8056 5.8976 0.60194 2.5878 1.6848 6.7401 2.347 9.2079 2.8889 10.652 4.273 16.129 4.6342 18.656 0.24074 1.5043 1.023 5.4167 1.8053 8.7265 0.78241 3.3099 1.7453 8.3054 2.1066 11.134 0.3609 2.8289 1.0226 6.7403 1.5043 8.7262 0.42114 1.9859 1.1434 6.5601 1.5044 10.231 0.36115 3.6104 1.0833 9.8695 1.5647 13.842 1.8058 14.744 2.7082 32.618 2.7682 54.164 0.0603 32.317-1.7451 49.048-6.8003 64.395-2.8286 8.3648-4.1526 11.976-4.9348 12.878-0.4816 0.5417-1.1435 1.8053-1.4444 2.7682-0.54183 1.5646-2.5878 4.8146-8.0042 12.578-3.0692 4.3335-13.24 12.398-17.754 14.023-1.3238 0.4215-2.9488 1.2039-3.6109 1.6248-0.66198 0.4214-3.9118 1.4448-7.2219 2.2264-5.1155 1.2033-7.5226 1.4447-16.249 1.4452-9.1475 0-10.893-0.181-16.249-1.625-3.31-0.8427-8.0642-2.5873-10.532-3.7911-4.5141-2.2279-10.291-5.5377-10.833-6.2599-0.1805-0.1806-2.0462-1.8659-4.2127-3.6708-3.8517-3.1901-11.254-10.593-14.624-14.564-6.3792-7.4017-13.781-17.03-18.475-23.952-1.1435-1.7453-2.8286-4.0321-3.7315-5.1154-0.96286-1.0836-1.685-2.1066-1.685-2.227 0-0.361-4.5739-7.2222-8.4256-12.638-1.324-1.9258-2.4073-3.6104-2.4073-3.7913 0-0.3009-2.3469-3.9715-5.4161-8.4248-1.6249-2.2877-5.8978-9.0274-7.7031-12.097-1.7453-2.8885-3.4907-5.6569-5.6573-8.9066-0.90253-1.3841-2.3469-3.7313-3.1895-5.3563-0.8427-1.5649-1.7454-2.8288-2.0463-2.8288s-0.84263-0.9029-1.324-1.9856c-0.7222-1.7457-3.1294-5.7177-5.7773-9.4485-0.60187-0.7824-1.4442-2.2874-1.8053-3.1899-0.4212-0.9632-1.4445-2.5283-2.287-3.551-0.8426-0.9627-1.5045-2.0464-1.5045-2.4072s-0.662-1.5045-1.4446-2.528c-0.7822-1.023-1.5648-2.4676-1.8055-3.19-0.24097-0.7223-1.2036-2.2869-2.1664-3.4903-1.0233-1.2635-1.8056-2.5278-1.8056-2.8287 0-0.5413-3.2498-5.5964-5.3562-8.3048-0.6019-0.8428-1.5648-2.4677-2.1062-3.6111-0.48145-1.1431-2.0462-3.8511-3.3703-6.0178-1.3239-2.1661-2.8888-4.995-3.4906-6.3186-0.66204-1.3242-1.5648-2.7683-2.1064-3.1897-0.48146-0.4214-1.2638-1.6254-1.6849-2.7086-0.42134-1.0829-1.384-2.7676-2.1664-3.7912-0.7825-1.0229-1.3843-2.1062-1.3843-2.4674 0-0.3005-0.6619-1.5042-1.5648-2.6478-0.8424-1.1437-1.9858-3.1896-2.5875-4.5137-0.6019-1.3839-1.4443-2.6477-1.8055-2.8888-0.3609-0.2407-1.2034-1.5644-1.8655-2.9487-1.3843-2.7089-3.7312-6.8006-5.8376-10.11-0.7825-1.0831-1.3844-2.2868-1.3844-2.5274 0-0.3009-0.7821-1.6252-1.685-3.0093-2.2267-3.3704-2.8285-4.3335-4.9348-8.3652-0.9629-1.8662-2.0462-3.5513-2.3473-3.7914-0.3609-0.1812-1.2036-1.5054-1.8656-2.8898-0.66195-1.3842-2.1665-4.0319-3.3099-5.8374-1.1435-1.8053-2.6481-4.4534-3.3099-5.8374-0.66211-1.3843-1.5047-2.708-1.8659-2.9493-0.36076-0.23976-1.2034-1.6243-1.9255-3.1884-0.6621-1.5046-1.7453-3.4907-2.4675-4.3932-0.72215-0.8425-2.0462-2.8887-2.949-4.5137-0.96274-1.5649-2.2868-3.7916-3.009-4.935-3.0092-4.6946-3.7915-5.898-4.935-7.8238-0.6621-1.0838-1.8056-2.8288-2.5277-3.9116-0.7221-1.0235-1.745-2.8286-2.2868-3.9723-0.54155-1.1437-1.4443-2.6477-2.046-3.3099-0.60193-0.66211-1.5648-2.0463-2.1066-3.009-0.54154-1.0231-1.6248-2.6483-2.3469-3.7312-0.7222-1.0233-2.1064-3.3104-3.1296-4.9949-0.9629-1.746-2.3469-3.8524-3.0091-4.6948-2.4072-3.1896-5.7171-9.0266-5.7171-10.231 0-0.60194 0.8426-2.1667 1.8054-3.4308 1.0229-1.2636 1.8054-2.4672 1.8054-2.708 0-0.2406 0.5417-1.0834 1.2639-1.8656 0.72213-0.78245 2.7683-3.6111 4.5137-6.2583 1.8055-2.6477 4.2126-6.0178 5.3562-7.5222 1.1433-1.5049 2.7681-3.6716 3.6107-4.9353 0.7823-1.204 2.0461-2.8287 2.8285-3.6709 0.7824-0.84289 2.347-2.7689 3.4905-4.3336 3.9122-5.2958 20.462-24.434 24.915-28.767 18.175-17.874 32.258-27.683 49.108-34.304 5.8378-2.287 15.888-4.7546 21.666-5.236 7.944-0.662 9.2078-0.662 17.031 0.06066zm-369.69 15.889c4.1526 0.48154 8.967 1.2032 10.712 1.5644 4.5135 0.9031 15.286 4.4538 17.994 5.8983 1.2639 0.6626 3.4906 1.8062 4.9951 2.468 17.272 7.884 39.9 27.322 59.7 51.273 2.0461 2.5273 5.597 6.8615 7.8237 9.6294 2.2267 2.708 4.5738 5.6568 5.296 6.4992 0.66192 0.8429 2.2869 3.0093 3.6108 4.8151 3.2498 4.5135 5.4164 7.4625 7.5227 10.17 1.0231 1.3242 2.7683 3.7313 3.9116 5.4763 1.1435 1.6851 2.8285 3.9717 3.7913 5.0553 0.9027 1.1437 1.6249 2.2866 1.6249 2.5875 0 0.3612 0.54169 1.0839 1.2038 1.685 1.7453 1.5653 1.4444 3.7917-0.96292 7.2221-1.1434 1.6253-3.1294 4.4534-4.333 6.2591-2.0462 2.9487-2.8285 4.1527-6.3791 9.449-0.66199 0.9629-1.8656 2.7678-2.7083 4.0318-0.84264 1.2636-1.986 2.9494-2.4675 3.6714-0.48137 0.78223-1.3841 2.046-1.9859 2.8286-0.60186 0.78225-3.0693 4.5738-5.5367 8.3652-5.1755 8.0044-6.5598 10.051-8.907 13.119-0.96276 1.2038-2.2868 3.1894-2.8886 4.3334-1.0833 1.9251-1.8655 3.1289-5.356 8.1245-0.72236 0.9626-1.8658 2.708-2.5878 3.8511-1.5648 2.4075-3.4303 5.236-6.5599 9.7494-1.2638 1.8053-2.7082 3.9117-3.31 4.7549-0.54162 0.8422-2.2267 3.3701-3.7313 5.6566-1.5046 2.2267-3.1294 4.6946-3.6108 5.4164-1.3843 2.0465-11.134 16.671-11.856 17.754-0.60175 0.8422-6.7403 10.231-8.365 12.758-2.8286 4.3924-4.6341 7.1608-5.7174 8.6652-3.4905 5.1152-5.4163 8.1252-5.4162 8.6068 0 0.3009-0.54167 1.0229-1.2638 1.6849-0.72217 0.6016-1.6851 1.9261-2.1666 2.949-0.54152 0.9634-1.4443 2.4671-2.1062 3.3095-0.60186 0.843-2.5878 3.731-4.3933 6.4997-5.1153 7.6432-9.6289 14.263-11.374 16.55-0.84263 1.143-1.5647 2.347-1.5647 2.6477 0 0.3611-0.42136 0.9629-0.90283 1.3835-0.9027 0.7222-1.9258 2.1674-5.8978 8.1249-1.8053 2.588-2.6478 3.7916-5.8374 8.245-1.1436 1.6244-3.0694 4.2731-4.2128 5.9576-1.1435 1.6856-2.8887 4.0926-3.9118 5.3567-0.96296 1.2633-2.7683 3.5506-3.9117 5.0554-11.555 15.406-22.508 28.345-31.294 37.011-6.8005 6.74-15.226 14.082-18.415 16.008-1.0833 0.6625-3.5505 2.167-5.4764 3.371-6.1384 3.7312-13.3 6.4398-21.545 8.1246-14.624 2.9492-29.308 1.3245-41.405-4.5737-2.7082-1.3844-6.1384-3.31-7.643-4.3931-3.6109-2.5286-11.435-10.352-13.601-13.601-3.1294-4.6941-6.2589-9.9905-6.68-11.134-0.1806-0.6019-1.023-2.3468-1.8054-3.9117-0.84249-1.5046-1.986-4.5132-2.5878-6.6799-0.66199-2.1664-1.6851-5.4167-2.347-7.2218-0.66202-1.8052-1.2037-4.1526-1.2638-5.1154 0-1.0228-0.30093-2.7681-0.60184-3.912-1.5046-4.8137-2.4674-12.457-3.1294-24.012-1.0832-18.957 0.66196-54.946 3.4904-71.074 0.48147-2.8283 1.1434-7.402 1.5046-10.231 0.36117-2.8285 1.2637-7.9442 2.1064-11.434 0.78231-3.4906 1.685-8.4859 2.0461-11.134 0.36106-2.6478 1.324-6.8605 2.1063-9.3276 0.78235-2.4677 1.7452-6.2 2.1063-8.2455 0.36108-1.986 1.2638-5.5368 2.0462-7.8231 0.78241-2.287 1.6249-5.4163 1.8656-6.861 0.24075-1.4437 1.0832-4.2124 1.8656-6.0779 0.78241-1.926 1.7453-4.8747 2.1063-6.6197 0.36109-1.7456 1.324-4.3935 2.0462-5.8983 0.72213-1.5039 1.5045-3.7912 1.7452-5.1152 0.24075-1.324 1.0833-3.6708 1.8656-5.2355 0.84256-1.5641 1.7453-4.0924 2.1063-5.657 0.36105-1.5647 1.1434-3.551 1.7452-4.3933 0.60178-0.8428 1.5647-2.9486 2.0462-4.5738 0.48147-1.6854 1.625-4.2136 2.4675-5.7178 0.84253-1.5047 1.5647-3.31 1.5647-4.0322 0-0.72205 0.66211-2.0465 1.4444-3.0096 0.78238-0.9623 1.7452-2.8884 2.1665-4.3931 0.36114-1.4441 1.324-3.4299 2.1064-4.4532 0.72217-1.023 1.6851-2.8882 2.0462-4.092 0.42116-1.2635 1.023-2.4674 1.3842-2.648 0.3009-0.24074 1.3841-2.0462 2.4072-4.0924 1.5647-3.3099 2.5276-4.9949 6.1986-11.133 2.2868-3.7922 4.694-7.5837 6.2587-9.8703 0.8425-1.2038 2.1063-3.1299 2.7684-4.2732 1.9258-3.1891 7.8835-10.893 14.804-19.016 6.3189-7.403 18.716-19.619 21.063-20.702 0.60183-0.30115 1.1434-0.72205 1.1434-1.0236 0-0.24073 1.2639-1.2639 2.8888-2.2869 1.5647-1.0233 4.0321-2.7084 5.5366-3.7915 5.9579-4.3331 16.49-9.5093 24.674-12.097 11.675-3.7313 23.05-4.6941 36.109-3.1299z"/> </g> </svg>